<?xml version="1.0" encoding="UTF-8" standalone="no"?>
<svg width="100px" height="100px" viewBox="0 0 100 100" version="1.1" xmlns="http://www.w3.org/2000/svg" xmlns:xlink="http://www.w3.org/1999/xlink">
    <!-- Generator: Sketch 3.7.1 (28215) - http://www.bohemiancoding.com/sketch -->
    <title>Rectangle 6</title>
    <desc>Created with Sketch.</desc>
    <defs></defs>
    <g id="Page-1" stroke="none" stroke-width="1" fill="none" fill-rule="evenodd">
        <g id="Open-Files" transform="translate(-400.000000, -1300.000000)">
            <rect id="Rectangle-6" x="400" y="1300" width="100" height="100"></rect>
            <path d="M445.36742,1356 C444.959638,1356 444.551856,1355.76136 444.313983,1355.42045 C444.076111,1355.07955 444.076111,1354.63636 444.24602,1354.26136 L447.950038,1344.06818 L447.950038,1344.03409 C448.085965,1343.69318 448.018002,1343.31818 447.712165,1343.11364 L442.716838,1339.29545 C442.309056,1338.95455 442.037202,1338.47727 442.00322,1337.93182 C441.969238,1337.38636 442.207111,1336.90909 442.580911,1336.53409 L454.882329,1326.30682 C455.120202,1326.10227 455.392056,1326 455.697893,1326 C456.105674,1326 456.513456,1326.20455 456.751329,1326.57955 C456.989202,1326.92045 457.023183,1327.36364 456.853274,1327.73864 L452.809438,1335.92045 C452.673511,1336.22727 452.775456,1336.60227 453.047311,1336.80682 L457.906711,1340.59091 C458.314493,1340.93182 458.552365,1341.40909 458.586347,1341.95455 C458.586347,1342.46591 458.382456,1342.97727 458.008656,1343.31818 L446.216965,1355.65909 L446.182983,1355.69318 C445.979093,1355.89773 445.673256,1356 445.36742,1356 Z M442.08584,1364.5752 L444.085352,1364.5752 C444.996489,1364.5752 445.657859,1364.70483 446.069482,1364.96411 C446.481106,1365.22339 446.686914,1365.63574 446.686914,1366.20117 C446.686914,1366.58496 446.596827,1366.8999 446.41665,1367.146 C446.236474,1367.39209 445.996974,1367.54004 445.698145,1367.58984 L445.698145,1367.63379 C446.105373,1367.72461 446.399071,1367.89453 446.579248,1368.14355 C446.759425,1368.39258 446.849512,1368.72363 446.849512,1369.13672 C446.849512,1369.72266 446.637844,1370.17969 446.214502,1370.50781 C445.79116,1370.83594 445.216215,1371 444.489648,1371 L442.08584,1371 L442.08584,1364.5752 Z M443.448145,1367.11963 L444.23916,1367.11963 C444.608303,1367.11963 444.875634,1367.0625 445.041162,1366.94824 C445.20669,1366.83398 445.289453,1366.64502 445.289453,1366.38135 C445.289453,1366.13525 445.199366,1365.95874 445.019189,1365.85181 C444.839013,1365.74487 444.554104,1365.69141 444.164453,1365.69141 L443.448145,1365.69141 L443.448145,1367.11963 Z M443.448145,1368.20068 L443.448145,1369.875 L444.33584,1369.875 C444.710842,1369.875 444.987694,1369.80322 445.166406,1369.65967 C445.345118,1369.51611 445.434473,1369.29639 445.434473,1369.00049 C445.434473,1368.46728 445.053617,1368.20068 444.291895,1368.20068 L443.448145,1368.20068 Z M447.832715,1371 L447.832715,1364.5752 L449.19502,1364.5752 L449.19502,1371 L447.832715,1371 Z M455.842773,1367.72607 C455.842773,1368.7837 455.541751,1369.59375 454.939697,1370.15625 C454.337643,1370.71875 453.468267,1371 452.331543,1371 L450.512207,1371 L450.512207,1364.5752 L452.529297,1364.5752 C453.57813,1364.5752 454.392575,1364.85205 454.972656,1365.40576 C455.552737,1365.95948 455.842773,1366.73291 455.842773,1367.72607 Z M454.427734,1367.76123 C454.427734,1366.38134 453.818365,1365.69141 452.599609,1365.69141 L451.874512,1365.69141 L451.874512,1369.875 L452.458984,1369.875 C453.771491,1369.875 454.427734,1369.17042 454.427734,1367.76123 Z M460.666797,1369.21582 C460.666797,1369.7959 460.458059,1370.25293 460.040576,1370.58691 C459.623094,1370.9209 459.042289,1371.08789 458.298145,1371.08789 C457.612594,1371.08789 457.006155,1370.95899 456.478809,1370.70117 L456.478809,1369.43555 C456.912404,1369.62891 457.279344,1369.76514 457.579639,1369.84424 C457.879933,1369.92334 458.154589,1369.96289 458.403613,1369.96289 C458.702443,1369.96289 458.931689,1369.90576 459.091357,1369.7915 C459.251026,1369.67725 459.330859,1369.50733 459.330859,1369.28174 C459.330859,1369.15576 459.295703,1369.0437 459.225391,1368.94556 C459.155078,1368.84741 459.051807,1368.75293 458.915576,1368.66211 C458.779345,1368.57129 458.50176,1368.42627 458.082812,1368.22705 C457.690232,1368.04248 457.395802,1367.86524 457.199512,1367.69531 C457.003222,1367.52539 456.846485,1367.32764 456.729297,1367.10205 C456.612109,1366.87646 456.553516,1366.61279 456.553516,1366.31104 C456.553516,1365.74267 456.746141,1365.2959 457.131396,1364.9707 C457.516652,1364.64551 458.049118,1364.48291 458.728809,1364.48291 C459.062795,1364.48291 459.381395,1364.52246 459.684619,1364.60156 C459.987843,1364.68066 460.304979,1364.79199 460.636035,1364.93555 L460.196582,1365.99463 C459.853807,1365.854 459.570362,1365.75586 459.34624,1365.7002 C459.122118,1365.64453 458.901661,1365.6167 458.684863,1365.6167 C458.427049,1365.6167 458.229298,1365.67676 458.091602,1365.79688 C457.953906,1365.91699 457.885059,1366.07373 457.885059,1366.26709 C457.885059,1366.38721 457.91289,1366.49194 457.968555,1366.5813 C458.024219,1366.67065 458.112841,1366.75708 458.234424,1366.84058 C458.356006,1366.92407 458.643845,1367.07422 459.097949,1367.29102 C459.698538,1367.57813 460.110155,1367.86597 460.332812,1368.15454 C460.55547,1368.44312 460.666797,1368.79687 460.666797,1369.21582 Z" id="Fill-1" fill="#2D2D2D"></path>
        </g>
    </g>
</svg>